<?xml version="1.0" standalone="no"?>
<!DOCTYPE svg PUBLIC "-//W3C//DTD SVG 20010904//EN"
 "http://www.w3.org/TR/2001/REC-SVG-20010904/DTD/svg10.dtd">
<svg version="1.0" xmlns="http://www.w3.org/2000/svg"
 width="512.000000pt" height="512.000000pt" viewBox="0 0 512.000000 512.000000"
 preserveAspectRatio="xMidYMid meet">
<metadata>
Created by potrace 1.14, written by Peter Selinger 2001-2017
</metadata>
<g transform="translate(0.000000,512.000000) scale(0.100000,-0.100000)"
fill="#000000" stroke="none">
<path d="M2615 5110 c-16 -4 -88 -24 -160 -43 -71 -20 -191 -52 -265 -72 -74
-20 -160 -43 -190 -51 -233 -63 -368 -99 -450 -120 -52 -14 -252 -68 -445
-120 -192 -52 -417 -112 -500 -134 -285 -77 -340 -92 -390 -107 -175 -55 -255
-229 -190 -413 8 -22 14 -41 14 -43 -1 -6 136 -523 331 -1247 34 -124 74 -274
90 -335 16 -60 36 -137 45 -170 9 -33 23 -85 31 -115 8 -30 16 -62 18 -70 2
-8 48 -177 101 -375 53 -198 98 -367 100 -375 2 -8 20 -76 40 -150 20 -74 43
-160 51 -190 153 -573 150 -563 189 -614 30 -40 105 -96 127 -96 8 0 19 -5 24
-10 14 -14 119 -15 169 -2 108 28 250 66 455 121 123 33 225 59 226 58 2 -1 4
-45 5 -98 1 -66 7 -111 21 -148 26 -70 98 -142 169 -169 54 -21 62 -21 1359
-19 l1305 2 47 22 c64 29 132 101 157 165 19 51 20 77 20 806 1 839 5 799 -66
824 l-33 12 0 121 0 121 34 12 c33 12 66 59 66 96 0 33 -25 67 -61 83 l-38 18
-1 120 0 121 35 13 c69 24 66 -14 63 833 l-3 763 -30 59 c-34 68 -92 119 -164
147 -48 18 -89 19 -918 19 -620 0 -869 3 -874 11 -4 6 -19 59 -34 118 -15 58
-31 120 -36 136 -5 17 -25 91 -45 165 -20 74 -44 150 -54 170 -27 51 -83 105
-137 130 -51 24 -159 35 -208 20z"/>
</g>
</svg>
